<?xml version="1.0" standalone="no"?>
<!DOCTYPE svg PUBLIC "-//W3C//DTD SVG 20010904//EN"
 "http://www.w3.org/TR/2001/REC-SVG-20010904/DTD/svg10.dtd">
<svg version="1.0" xmlns="http://www.w3.org/2000/svg"
 width="700.000000pt" height="700.000000pt" viewBox="0 0 700.000000 700.000000"
 preserveAspectRatio="xMidYMid meet">
<metadata>
Created by potrace 1.14, written by Peter Selinger 2001-2017
</metadata>
<g transform="translate(0.000000,700.000000) scale(0.100000,-0.100000)"
fill="#000000" stroke="none">
<path d="M5060 6388 c-282 -59 -564 -227 -938 -560 l-117 -104 -930 7 c-511 4
-1185 7 -1497 8 l-568 1 0 -58 0 -59 698 -6 c383 -4 877 -7 1097 -7 220 0 552
-3 737 -7 l337 -6 -64 -69 c-149 -158 -257 -312 -354 -505 -56 -113 -101 -246
-141 -422 l-13 -54 -481 6 c-264 4 -785 8 -1156 9 l-675 3 0 -60 0 -60 1145
-8 c630 -5 1146 -9 1147 -11 5 -4 -109 -464 -151 -606 -39 -135 -91 -289 -138
-409 l-13 -34 -1002 6 -1003 6 0 -58 0 -58 98 -6 c53 -4 401 -7 773 -7 372 0
764 -3 872 -7 l196 -6 -26 -46 c-15 -25 -96 -154 -181 -286 -204 -316 -191
-293 -168 -310 10 -8 23 -16 27 -17 5 -2 2 -25 -6 -53 -18 -57 -10 -116 25
-187 11 -23 20 -43 20 -45 0 -1 -60 27 -134 63 -93 46 -138 64 -149 58 -9 -5
-56 -46 -106 -92 l-91 -84 -575 8 -575 7 0 -60 0 -60 152 -6 c83 -4 317 -7
520 -7 l370 0 -65 -72 c-241 -273 -385 -547 -419 -798 l-12 -90 -258 0 -258 0
0 -60 0 -60 78 0 c42 0 154 -3 249 -7 l171 -6 1 -80 c3 -286 177 -580 451
-763 332 -220 727 -250 1017 -76 219 131 402 333 679 751 l109 164 525 -7
c289 -3 795 -7 1125 -8 l600 -3 0 60 0 60 -700 6 c-385 3 -877 7 -1092 8
l-393 1 10 26 c25 65 -1 210 -48 266 -8 9 -11 25 -8 36 6 18 11 19 44 10 47
-13 149 -5 187 15 46 23 107 90 194 211 108 153 159 216 248 314 l77 85 726
-4 725 -4 0 60 0 60 -652 5 c-358 3 -654 8 -658 11 -5 6 126 133 435 423 190
177 291 296 398 466 l60 95 208 5 209 5 0 60 0 60 -171 3 -171 2 69 155 c89
200 187 497 233 705 20 91 41 173 46 182 5 10 9 33 9 53 0 19 7 81 15 137 47
325 46 649 -1 908 -11 58 -12 86 -5 88 6 2 11 30 11 63 0 58 0 59 -28 59 -25
0 -30 6 -45 53 -26 83 -86 193 -172 315 -132 190 -236 269 -402 306 -79 17
-240 20 -313 4z m-1990 -4358 c0 -5 -2 -10 -4 -10 -3 0 -8 5 -11 10 -3 6 -1
10 4 10 6 0 11 -4 11 -10z m35 -20 c3 -5 1 -10 -4 -10 -6 0 -11 5 -11 10 0 6
2 10 4 10 3 0 8 -4 11 -10z m60 -42 c19 -13 35 -27 35 -31 0 -4 -17 4 -37 20
-21 15 -40 28 -42 30 -2 2 -1 3 2 3 4 0 23 -10 42 -22z m65 -44 c0 -8 -5 -12
-10 -9 -6 4 -8 11 -5 16 9 14 15 11 15 -7z m37 -19 c8 -9 13 -19 9 -22 -7 -7
-36 16 -36 28 0 13 10 11 27 -6z m49 -40 c17 -16 14 -18 -10 -9 -9 3 -16 10
-16 15 0 13 9 11 26 -6z m34 -25 c0 -5 -5 -10 -11 -10 -5 0 -7 5 -4 10 3 6 8
10 11 10 2 0 4 -4 4 -10z"/>
</g>
</svg>
